PathFileType	4	(X/Y/Z)
DataRate	CameraRate	NumFrames	NumMarkers	Units	OrigDataRate	OrigDataStartFrame	OrigNumFrames	
  120.0	  120.0	    6	     56	     mm	  120.0	      291	    465
Frame#	Time	LASI			RASI			LPSI			RPSI			RTH1			RTH2			RTH3			RLFC			RMFC			LTH1			LTH2			LTH3			LLFC			LMFC			RTB1			RTB2			RTB3			RLMAL			RMMAL			LTB1			LTB2			LTB3			LMMAL			LLMAL			RCAL			RTOE			RMT5			LCAL			LTOE			LMT5			LACR			RACR			CLAV			C7			LASH			LPSH			RASH			RPSH			RUA1			RUA2			RUA3			RLEL			RMEL			LUA1			LUA2			LUA3			LLEL			LMEL			RFAsuperior			RFAradius			RFAulna			LFAsuperior			LFAradius			LFAulna			RHJC			LHJC			
		X1	Y1	Z1	X2	Y2	Z2	X3	Y3	Z3	X4	Y4	Z4	X5	Y5	Z5	X6	Y6	Z6	X7	Y7	Z7	X8	Y8	Z8	X9	Y9	Z9	X10	Y10	Z10	X11	Y11	Z11	X12	Y12	Z12	X13	Y13	Z13	X14	Y14	Z14	X15	Y15	Z15	X16	Y16	Z16	X17	Y17	Z17	X18	Y18	Z18	X19	Y19	Z19	X20	Y20	Z20	X21	Y21	Z21	X22	Y22	Z22	X23	Y23	Z23	X24	Y24	Z24	X25	Y25	Z25	X26	Y26	Z26	X27	Y27	Z27	X28	Y28	Z28	X29	Y29	Z29	X30	Y30	Z30	X31	Y31	Z31	X32	Y32	Z32	X33	Y33	Z33	X34	Y34	Z34	X35	Y35	Z35	X36	Y36	Z36	X37	Y37	Z37	X38	Y38	Z38	X39	Y39	Z39	X40	Y40	Z40	X41	Y41	Z41	X42	Y42	Z42	X43	Y43	Z43	X44	Y44	Z44	X45	Y45	Z45	X46	Y46	Z46	X47	Y47	Z47	X48	Y48	Z48	X49	Y49	Z49	X50	Y50	Z50	X51	Y51	Z51	X52	Y52	Z52	X53	Y53	Z53	X54	Y54	Z54	X55	Y55	Z55	X56	Y56	Z56	

295	2.45833	623.50668	1111.36247	-639.80805	658.90670	1106.72705	-388.36897	466.63225	1142.09835	-533.60551	486.24046	1143.13202	-434.27811	632.93659	877.41743	-328.10301	647.15102	753.22062	-358.80674	561.26838	637.68284	-329.30604	552.31510	556.41963	-329.96064	544.61345	560.92828	-442.10676	546.16288	870.07871	-682.20340	592.22353	763.68181	-658.84235	529.84822	658.99978	-651.66272	517.79621	574.61689	-644.04965	529.79051	569.55772	-530.08160	565.57000	430.38336	-378.04554	506.94967	353.12184	-306.55503	536.37040	234.05068	-363.00689	487.04805	139.74276	-310.71897	499.52308	140.09796	-392.50744	536.38594	432.81187	-589.42947	478.68931	327.89824	-646.78981	516.26907	217.81830	-603.94652	480.22753	141.74876	-565.20887	465.08272	140.42767	-641.38754	418.01218	105.89563	-347.62186	630.77380	57.89915	-392.87368	624.56914	71.08803	-300.44650	404.07667	104.70588	-597.91402	626.68209	53.61594	-576.08314	603.19668	70.45323	-667.44699	517.05096	1558.63728	-664.25726	556.12406	1558.85997	-341.52514	628.70903	1510.66678	-492.45730	507.44185	1589.00250	-497.74532	575.70375	1506.44945	-635.21653	464.87573	1526.16993	-641.75269	615.98132	1516.20327	-367.63167	502.15041	1522.05909	-342.78887	575.90008	1481.24557	-266.58245	527.96021	1429.81325	-255.62791	579.91846	1385.14964	-227.63939	532.56650	1290.11344	-144.40132	528.32604	1241.66895	-202.41142	491.06112	1466.60643	-745.75367	455.94754	1388.75748	-741.71330	511.93586	1397.49863	-790.49642	466.54177	1296.72983	-871.76191	468.42944	1254.38845	-812.40396	618.78227	1313.64080	-146.94125	778.50482	1311.91510	-214.69712	785.59976	1294.17604	-154.32582	552.98116	1324.69071	-875.04318	716.32388	1330.50679	-819.61277	713.76994	1320.75408	-878.48093	605.66317	998.55259	-401.69553	569.29792	1006.16064	-614.98238	
296	2.46667	623.55010	1111.35403	-639.99607	658.89297	1106.73453	-388.36192	466.77639	1142.04753	-533.61560	485.86542	1143.08862	-434.84146	632.93080	877.42039	-328.10469	647.15662	753.22945	-358.80935	561.24590	637.69081	-329.32315	552.33223	556.41926	-329.96121	544.61565	560.95180	-442.09262	546.14762	870.07408	-682.18511	592.18535	763.68511	-658.79710	529.84012	658.99447	-651.65178	517.79670	574.60909	-644.11410	529.76772	569.56625	-530.07051	565.58333	430.38607	-378.05126	506.94815	353.10179	-306.59998	536.37787	234.05685	-363.02387	487.03699	139.73826	-310.72433	499.51459	140.09545	-392.50931	536.38555	432.80946	-589.44073	478.68990	327.89972	-646.78602	516.26584	217.82249	-603.96616	480.22668	141.74696	-565.20775	465.08151	140.42888	-641.39665	418.00675	105.88632	-347.65531	630.77475	57.89740	-392.88269	624.56088	71.09478	-300.46271	404.07919	104.71131	-597.90787	626.66392	53.62095	-576.10410	603.18739	70.46244	-667.45802	516.97849	1558.63216	-664.23557	556.03600	1558.85140	-341.50151	628.62914	1510.68935	-492.43542	507.35280	1588.99220	-497.71911	575.64460	1506.45266	-635.18569	464.80344	1526.15783	-641.74266	615.88335	1516.20495	-367.63398	502.05366	1522.05007	-342.79431	575.82407	1481.24111	-266.58280	527.86401	1429.81810	-255.60320	579.83223	1385.13754	-227.64191	532.48538	1290.10948	-144.38387	528.24050	1241.65438	-202.39176	490.97694	1466.64411	-745.66718	455.88890	1388.73680	-741.69671	511.90038	1397.50235	-790.47735	466.53355	1296.72175	-871.76141	468.39001	1254.38345	-812.38678	618.70922	1313.64427	-146.91562	778.44073	1311.94437	-214.68447	785.53121	1294.19286	-154.29852	552.96689	1324.69444	-875.03069	716.29895	1330.57658	-819.58372	713.76010	1320.80284	-878.45720	605.55856	998.56131	-401.79951	569.45280	1006.11166	-615.13981	
297	2.47500	623.56356	1111.35979	-640.08546	658.91341	1106.72661	-388.34325	467.04336	1142.00805	-533.62730	485.53172	1143.04733	-435.36805	632.92390	877.42143	-328.09690	647.16067	753.23415	-358.80199	561.27822	637.71394	-329.28357	552.35114	556.41336	-329.95656	544.61456	560.96442	-442.08599	546.16786	870.05113	-682.15137	592.24142	763.70155	-658.77304	529.85879	658.98569	-651.64873	517.82701	574.60884	-644.16273	529.77655	569.56426	-530.07466	565.60767	430.37952	-378.04844	506.94865	353.07891	-306.62597	536.39158	234.05733	-363.02141	487.02828	139.73488	-310.72300	499.54447	140.08228	-392.52523	536.39923	432.80512	-589.44797	478.72531	327.89148	-646.80099	516.26626	217.81246	-603.96843	480.22377	141.74358	-565.20841	465.09526	140.42428	-641.41284	418.00748	105.87395	-347.68749	630.79030	57.88945	-392.88043	624.56445	71.09515	-300.46530	404.12421	104.71819	-597.94597	626.66840	53.61261	-576.12796	603.18964	70.46336	-667.46057	516.92540	1558.62139	-664.22093	555.94576	1558.83471	-341.47042	628.55801	1510.70086	-492.40321	507.26880	1588.97511	-497.68304	575.62168	1506.44768	-635.19408	464.75189	1526.14026	-641.73738	615.78374	1516.20420	-367.61602	501.95142	1522.02799	-342.82485	575.74320	1481.23612	-266.57393	527.77666	1429.82145	-255.55791	579.75145	1385.11997	-227.63413	532.41136	1290.09723	-144.35823	528.17624	1241.63678	-202.38431	490.89890	1466.70988	-745.54042	455.88548	1388.70843	-741.67439	511.88830	1397.49128	-790.47326	466.54713	1296.71106	-871.76477	468.36544	1254.37373	-812.37703	618.64328	1313.63699	-146.88616	778.39824	1311.97554	-214.67959	785.47059	1294.21269	-154.26058	552.97681	1324.69269	-875.03175	716.27754	1330.62640	-819.55076	713.76435	1320.84585	-878.45548	605.45034	998.56595	-401.85831	569.63510	1006.06689	-615.25988	
298	2.48333	623.53403	1111.37986	-640.01137	658.96173	1106.71089	-388.31246	467.32106	1141.99932	-533.63744	485.36567	1143.02779	-435.61638	632.91823	877.42541	-328.08375	647.16370	753.23643	-358.79038	561.34816	637.74228	-329.21608	552.36889	556.40865	-329.94765	544.61979	560.96687	-442.08498	546.22347	870.01236	-682.11002	592.36928	763.71962	-658.78298	529.90275	658.97724	-651.65038	517.88368	574.61595	-644.17920	529.82006	569.55234	-530.08976	565.64083	430.36730	-378.04772	506.94525	353.05561	-306.64168	536.41143	234.05637	-363.00950	487.02361	139.73742	-310.71519	499.60898	140.06370	-392.54662	536.42418	432.80102	-589.44438	478.79125	327.87702	-646.82344	516.27601	217.79842	-603.95786	480.22059	141.73842	-565.21228	465.12870	140.41380	-641.43186	418.01582	105.86686	-347.70905	630.81931	57.88111	-392.88010	624.58216	71.09332	-300.45113	404.20005	104.72932	-598.01888	626.69474	53.60073	-576.15117	603.20577	70.45894	-667.46316	516.89074	1558.60743	-664.21514	555.84941	1558.81616	-341.44021	628.49336	1510.70311	-492.36983	507.19184	1588.95467	-497.65094	575.62052	1506.43714	-635.23217	464.72393	1526.11697	-641.73657	615.68057	1516.20427	-367.58926	501.84981	1521.99954	-342.85477	575.65562	1481.22957	-266.55995	527.69712	1429.82400	-255.50393	579.67522	1385.10710	-227.62076	532.34377	1290.08141	-144.33077	528.13858	1241.62015	-202.38574	490.85252	1466.75525	-745.44859	455.94224	1388.66835	-741.68333	511.89318	1397.47036	-790.48160	466.57657	1296.70014	-871.76843	468.37076	1254.36098	-812.37504	618.58434	1313.62213	-146.85866	778.37059	1312.00389	-214.66961	785.41774	1294.23879	-154.21501	553.00453	1324.69449	-875.04275	716.25824	1330.66775	-819.51150	713.77822	1320.88887	-878.46468	605.37633	998.57010	-401.82803	569.77131	1006.04499	-615.27567	
299	2.49167	623.47907	1111.40380	-639.82779	659.02390	1106.69237	-388.26152	467.46418	1142.01518	-533.65130	485.36897	1143.03303	-435.55549	632.91551	877.43429	-328.07335	647.16678	753.23925	-358.78586	561.41895	637.76708	-329.16365	552.38236	556.41036	-329.93899	544.63157	560.96582	-442.08311	546.30244	869.97231	-682.08320	592.51875	763.73064	-658.82790	529.96446	658.97041	-651.65616	517.95723	574.62730	-644.16419	529.87361	569.53877	-530.10221	565.68133	430.35522	-378.05927	506.93291	353.03335	-306.66638	536.43782	234.05759	-363.00840	487.02121	139.74655	-310.70640	499.69345	140.04627	-392.56545	536.45752	432.79800	-589.42899	478.87804	327.86155	-646.84277	516.29918	217.79257	-603.95007	480.22005	141.73316	-565.21549	465.18461	140.39820	-641.45276	418.02669	105.86976	-347.71922	630.86006	57.87805	-392.89656	624.60928	71.09281	-300.43262	404.28989	104.74709	-598.10751	626.73538	53.59440	-576.17110	603.23498	70.45574	-667.47475	516.86836	1558.59196	-664.21668	555.74465	1558.80502	-341.41739	628.43070	1510.70168	-492.35101	507.12152	1588.93544	-497.63371	575.62115	1506.42347	-635.28679	464.71824	1526.08581	-641.74437	615.57390	1516.20872	-367.57026	501.75478	1521.97701	-342.84753	575.56057	1481.22236	-266.54340	527.62057	1429.82549	-255.46087	579.59940	1385.10320	-227.61508	532.27991	1290.06532	-144.31372	528.11590	1241.60536	-202.39098	490.85690	1466.73465	-745.45938	456.04737	1388.60757	-741.76385	511.90922	1397.44618	-790.49966	466.61557	1296.68858	-871.77455	468.39799	1254.34779	-812.37417	618.53137	1313.60273	-146.84454	778.35303	1312.02318	-214.65355	785.36857	1294.27200	-154.17296	553.04081	1324.70064	-875.06065	716.23464	1330.71627	-819.47296	713.80021	1320.93458	-878.47014	605.33782	998.57362	-401.72386	569.83369	1006.04384	-615.19579	
300	2.50000	623.43136	1111.41854	-639.66164	659.08117	1106.66957	-388.18998	467.40969	1142.03114	-533.66973	485.43916	1143.04618	-435.35205	632.91639	877.44527	-328.07030	647.17155	753.24422	-358.79557	561.46871	637.78984	-329.13995	552.39134	556.41714	-329.93562	544.64514	560.96575	-442.07435	546.38476	869.94922	-682.09063	592.65032	763.73689	-658.89469	530.03290	658.96330	-651.66846	518.03454	574.63765	-644.12923	529.90216	569.53203	-530.09871	565.72732	430.34729	-378.08358	506.91431	353.01393	-306.70827	536.47015	234.05986	-363.02940	487.01813	139.75745	-310.70274	499.77686	140.03393	-392.57841	536.49663	432.79541	-589.40738	478.96853	327.84992	-646.85465	516.33362	217.79824	-603.95655	480.22258	141.72972	-565.21227	465.25792	140.37920	-641.47554	418.03242	105.88023	-347.72343	630.90647	57.88170	-392.93063	624.63773	71.09349	-300.42978	404.37504	104.76586	-598.18580	626.78078	53.59293	-576.18578	603.27229	70.45731	-667.49500	516.84878	1558.57400	-664.22008	555.63355	1558.80508	-341.40200	628.36666	1510.70074	-492.35348	507.05502	1588.91925	-497.63190	575.61036	1506.40719	-635.34723	464.72493	1526.04520	-641.76234	615.46699	1516.21711	-367.56315	501.66676	1521.96569	-342.79018	575.45846	1481.21449	-266.52390	527.54280	1429.82086	-255.44075	579.52154	1385.10360	-227.62490	532.21769	1290.04781	-144.31372	528.08409	1241.58938	-202.39478	490.90457	1466.64590	-745.57458	456.16835	1388.52511	-741.91199	511.93129	1397.42377	-790.52195	466.65777	1296.67348	-871.78759	468.42452	1254.33348	-812.36800	618.48222	1313.57896	-146.85026	778.34291	1312.03030	-214.63742	785.31802	1294.30866	-154.14347	553.07694	1324.70354	-875.08365	716.20034	1330.77409	-819.44759	713.82851	1320.97867	-878.46593	605.31278	998.56992	-401.61010	569.84259	1006.04712	-615.09186	
